# xmcd
#
# Track frame offsets:
#	150
#	14259
#	27984
#	48989
#	61607
#	77454
#	93609
#	109590
#	122848
#	141752
#	160929
#	179461
#	195352
#	213863
#	230366
#	242065
#	256826
#	273162
#	293331
#	310889
#	329800
#
# Disc length: 4627 seconds
#
# Revision: 6
# Processed by: cddbd v1.5.2PL0 Copyright (c) Steve Scherf et al.
# Submitted via: audiograbber 1.83.01
#
DISCID=17121115
DTITLE=David Garrett - Unlimited - Greatest Hits [Deluxe Version] [CD 1)
DYEAR=2018
DGENRE=Crossover
TTITLE0=Smooth Criminal [acoustic version 2018]
TTITLE1=He's A Pirate ["Pirates Of The Caribbean"]
TTITLE2=Leningrad [2018]
TTITLE3=Walk This Way [acoustic version 2018]
TTITLE4=The Show Must Go On [2018]
TTITLE5=Air [acoustic version 2018]
TTITLE6=The 5th
TTITLE7=Asturias [acoustic version 2018]
TTITLE8=Musica É [2018]
TTITLE9=Viva La Vida
TTITLE10=Toccata [new arrangement 2018]
TTITLE11=Nothing Else Matters
TTITLE12=Smells Like Teen Spirit
TTITLE13=She's Out Of My Life [2018]
TTITLE14=Summer
TTITLE15=Cry Me A River
TTITLE16=Kashmir
TTITLE17=The Best Of Me [2018]
TTITLE18=Dangerous
TTITLE19=Purple Rain
TTITLE20=Hey Jude [2018]
EXTD=
EXTT0=
EXTT1=
EXTT2=
EXTT3=
EXTT4=
EXTT5=
EXTT6=
EXTT7=
EXTT8=
EXTT9=
EXTT10=
EXTT11=
EXTT12=
EXTT13=
EXTT14=
EXTT15=
EXTT16=
EXTT17=
EXTT18=
EXTT19=
EXTT20=
PLAYORDER=
